<?xml version="1.0" standalone="no"?>
<!DOCTYPE svg PUBLIC "-//W3C//DTD SVG 1.1//EN" "http://www.w3.org/Graphics/SVG/1.1/DTD/svg11.dtd" >
<svg xmlns="http://www.w3.org/2000/svg" xmlns:xlink="http://www.w3.org/1999/xlink" version="1.1" viewBox="-10 0 1010 1000">
  <g transform="matrix(1 0 0 -1 0 880)">
   <path fill="currentColor"
d="M459 100c28 0 55 2 79 6c-9 78 -56 132 -131 132c-45 0 -79 -27 -79 -61c0 -49 57 -77 131 -77zM472 28c-135 0 -218 60 -218 142c0 68 61 130 153 130c124 0 196 -88 209 -180c109 21 200 73 200 276c0 104 -88 210 -222 210c-163 0 -400 -109 -478 -140l-37 88
c36 7 72.6484 16.0176 109 29c84 30 263 98 408 98c164 0 308 -120 308 -286c0 -238 -86.7914 -367 -432 -367z" />
  </g>

</svg>
