<?xml version="1.0" standalone="no"?>
<!DOCTYPE svg PUBLIC "-//W3C//DTD SVG 1.1//EN" "http://www.w3.org/Graphics/SVG/1.1/DTD/svg11.dtd" >
<svg xmlns="http://www.w3.org/2000/svg" xmlns:xlink="http://www.w3.org/1999/xlink" version="1.1" viewBox="-10 0 1010 1000">
  <g transform="matrix(1 0 0 -1 0 880)">
   <path fill="currentColor"
d="M945 494.292l-43 -50.8711c-49 33.8779 -98 57.6006 -149 78.2217v-13.2559c0 -46.915 -22.9326 -88.1123 -95.9873 -104.163c-5.0957 -14.0352 -12.835 -35.2031 -17.0127 -45.8584c159 -17.9629 267 -100.456 267 -213.553c0 -131.06 -141 -211.558 -353 -230.851
l-48 57.2344c206 11.9746 321 74.4902 321 175.611c0 85.1562 -80 132.018 -206 146.653c-37 -83.8252 -99 -159.908 -155 -214.461c14 -30.749 18 -36 35 -64.9707l-64 -36.9287c-11 27.8994 -13 30.8994 -28 55.3213c-61 -49.2295 -103 -69.8955 -177 -69.8955
c-75 0 -139 41.9131 -139 119.751c0 108.723 117 182.493 207 231.723c-41 100 -41 104 -51 122.93l87 19.2979c3 -13.2275 6 -19.2275 33 -115.621c52.2119 20.5127 123.723 26.9053 179.945 26.9053c5.15625 0 10.1826 -0.0537109 15.0547 -0.155273
c4.77148 12.6982 8.91113 19.7041 12.418 29.7373c-130.094 0.921875 -201.418 41.2373 -201.418 105.3c0 61.127 74 111.207 204 111.207c33 0 64 -2.20898 92 -6.62793c-3 55.9727 -3 20.7012 -4 81.0928c-32 -0.736328 -63 -1.47363 -95 -1.47363
c-56 0 -108 2.20898 -166 4.41895v66.9727c56 -4.41895 110 -6.62793 168 -6.62793c31 0 62 0.735352 93 1.47168v38.6475c0 12.5195 -2 31.668 -5 44.1875h91c-4.3252 -20.1748 -8.63086 -61.6572 -9 -74.1523c0.97168 0.0478516 1.98828 -0.0478516 3.02539 0.0712891
c142.975 16.4189 198.783 11.7217 214.115 -50.4434c12.8594 -52.1377 -28.1221 -119.132 -126.502 -119.132c-0.931641 0 -1.86523 0.00390625 -2.80078 0.0117188l0.162109 61.9824c51.1719 0 71.5693 20.3906 65.4746 41.3252
c-7.47461 25.6748 -37.4746 14.6748 -150.547 0.755859c-1.00293 -0.123047 -1.9873 -0.0234375 -2.92773 -0.0703125c1 -72.9111 2 -45.5869 6 -106.713c80 -23.5674 143 -61.1279 195 -95.0059zM675 530.38c0 6.62793 -1 8.30371 -1 8.30371
c-32 8.10059 -66 11.7822 -101 11.7822c-74 0 -125 -8.30273 -125 -42.1807c0 -36.0879 48 -50.709 119 -50.709c84 0 108 24.1953 108 72.8037zM141 838.18l88 -5.15625c-6 -11.7832 -15 -42.0234 -17 -49.3438c-7.83398 -28.6719 -20 -67.708 -20 -149.457
c0 -35.3516 2 -64.0742 9 -99.4248c16 33.1416 39 76.5938 56 106.053l42 -24.3037c-25 -50.8164 -60 -125.2 -70 -161.288c-2.59766 -8.29199 -5.19629 -19.8965 -5.19629 -28.5986c0 -5.30664 0 -5.30664 3.19629 -28.8467l-71 -4.41797
c-20 52.2891 -38 132.565 -38 231.253c0 106.788 12.6934 141.521 16 161.978c2 12.374 7 36.0869 7 51.5537zM240 15.084c49 0 98 47.5986 142 86.1846c-21 49.7314 -41 102.731 -61 154.731c-65 -41.248 -155 -85.623 -155 -170.396c0 -43.9082 29 -70.5195 74 -70.5195z
M438 145.507c42 46.5693 77 88.4229 107 156.28c-49 -0.787109 -122 -4.44922 -159 -21.5195c0.378906 -1.58203 27 -79.2676 52 -134.761z" />
  </g>

</svg>
