<?xml version="1.0" standalone="no"?>
<!DOCTYPE svg PUBLIC "-//W3C//DTD SVG 1.1//EN" "http://www.w3.org/Graphics/SVG/1.1/DTD/svg11.dtd" >
<svg xmlns="http://www.w3.org/2000/svg" xmlns:xlink="http://www.w3.org/1999/xlink" version="1.1" viewBox="-10 0 1010 1000">
  <g transform="matrix(1 0 0 -1 0 880)">
   <path fill="currentColor"
d="M282.419 156.773c43.6934 0 107.305 82.3586 146.581 153.712c23.1236 42.0091 60 120.319 71 200.627c-190 -21.1797 -298 -90.0273 -298 -207.399c0 -76.7129 24.9033 -146.939 80.4189 -146.939zM515 -40.6328l-46 66.1875c31 1.76562 61 6.17773 85 10.5898
c127 24.7109 261 106.665 261 257.573c0 132.375 -64 205.922 -232 218.277c-13 -81.1904 -60.7441 -187.43 -88 -237.995c-45.0988 -83.6685 -126.987 -194.423 -213.706 -194.423c-66.4277 0 -158.294 49.2098 -158.294 217.958c0 178.306 162.431 271.905 382 288.081
c0 50.3838 -85 99.3838 -216 112.384l26 63c169.999 -11.9999 274 -96 274 -175.029c209.458 -13.2363 309 -127.621 309 -294.019c0 -183.56 -147 -305.228 -383 -332.585z" />
  </g>

</svg>
