<?xml version="1.0" standalone="no"?>
<!DOCTYPE svg PUBLIC "-//W3C//DTD SVG 1.1//EN" "http://www.w3.org/Graphics/SVG/1.1/DTD/svg11.dtd" >
<svg xmlns="http://www.w3.org/2000/svg" xmlns:xlink="http://www.w3.org/1999/xlink" version="1.1" viewBox="-10 0 1010 1000">
  <g transform="matrix(1 0 0 -1 0 880)">
   <path fill="currentColor"
d="M737 251c-72 0 -107 -64 -107 -112c0 -29.252 4.82617 -56.1436 24.1992 -56.1436c22.8008 0 53.8008 21.1436 82.8008 168.144zM473.546 346.247c24.8936 52.5957 45.9082 115.678 62.6211 176.215c-81.3789 -8.16113 -136.552 -43.3457 -195.908 -89.1367
c10.8691 -38.417 19.3018 -71.5361 27.6152 -96.5947c13.6328 -40.7314 22.5029 -69.875 40.7676 -105.081c26.1279 36.3652 42.8721 69.7354 64.9043 114.598zM279.811 377.594l-9.37207 -12.0488c-50.9453 -60.7988 -81.125 -124.886 -88.7705 -194.467
c-0.754883 -6.86914 -0.982422 -13.4893 -0.732422 -19.8057c1.55469 -39.3877 21.6611 -67 48.2168 -69.918c3.79297 -0.416992 7.60059 -0.544922 11.4258 -0.393555c38.2861 1.51172 78.3555 30.9492 122.875 78.1904c-20.2529 35.4248 -39.6309 78.7998 -55.918 122.843
c-9.19824 26.1611 -17.5225 60.2744 -27.7246 95.5996zM631.165 590.493l9.94043 -1.09277c178.735 -19.6487 193.895 -183.4 184.895 -272.4c46 0 129.297 -70 129.297 -168.968c0 -85.0322 -49.2969 -149.032 -107.297 -157.032l-40 52c58.3633 11.0439 78 58 78 111
c0 54.4424 -53 91 -78 91c-29.4502 -145.7 -66 -228.954 -157.178 -228.954c-57.2988 0 -85.8223 51.3574 -85.8223 117.954c0 106 97 186 189 186c13 91 -16.3161 190.378 -125.292 202.354l-13.916 1.5293c-18.7979 -70.3682 -41.8994 -143.281 -73.292 -209.247
c-77.4248 -161.163 -182.021 -309.516 -301.938 -314.25c-7.35645 -0.290039 -14.7695 -0.0400391 -22.2373 0.780273c-61.209 6.72559 -106.747 56.8818 -109.757 133.135c-0.412109 10.4307 -0.0283203 21.3496 1.2207 32.7119
c11.1396 101.391 53.5547 185.259 108.475 245.622c13.6768 14.5938 26.3584 29.2969 42.0215 43.6719c-7.54785 32.0156 -15.3145 62.0439 -20.5361 87.7676c-7.00293 36.9863 -11.8965 65.6924 -24.5361 106.316l77.9385 22.623
c5.25391 -52.8906 16.8115 -112.51 29.7998 -168.262c67.3096 44.918 133.635 80.8887 231.91 87.1934c4.28223 20.6553 8.45508 40.3174 11.415 58.1006c2.5625 15.0928 4.39258 27.2178 5.64746 38.6406c1.53711 13.9902 2.21191 26.9287 2.31445 42.9785
l89.1338 -12.8115c-7.59082 -23.3115 -14.2871 -56.7803 -19.5625 -77.3262z" />
  </g>

</svg>
