<?xml version="1.0" standalone="no"?>
<!DOCTYPE svg PUBLIC "-//W3C//DTD SVG 1.1//EN" "http://www.w3.org/Graphics/SVG/1.1/DTD/svg11.dtd" >
<svg xmlns="http://www.w3.org/2000/svg" xmlns:xlink="http://www.w3.org/1999/xlink" version="1.1" viewBox="-10 0 1010 1000">
   <path fill="currentColor"
d="M459 780c28 0 55 -2 79 -6c-9 -78 -56 -132 -131 -132c-45 0 -79 27 -79 61c0 49 57 77 131 77zM472 852c-135 0 -218 -60 -218 -142c0 -68 61 -130 153 -130c124 0 196 88 209 180c109 -21 200 -65 200 -268c0 -104 -80 -191 -214 -191c-163 0 -411 108 -489 139
l-37 -88c36 -7 72.6484 -16.0176 109 -29c84 -30 274 -97 419 -97c164 0 300 101 300 267c0 238 -86.791 359 -432 359z" />
</svg>
