<?xml version="1.0" standalone="no"?>
<!DOCTYPE svg PUBLIC "-//W3C//DTD SVG 1.1//EN" "http://www.w3.org/Graphics/SVG/1.1/DTD/svg11.dtd" >
<svg xmlns="http://www.w3.org/2000/svg" xmlns:xlink="http://www.w3.org/1999/xlink" version="1.1" viewBox="-10 0 993 1000">
   <path fill="currentColor"
d="M374 211c3.80859 0 264.786 -5.38867 380 -25l-1 74c-76.0977 11.6475 -210.036 18.0137 -407 23zM374 211c-23 1 -44 1 -65 1c-45 0 -114 -4 -167 -10v75c54 4 121 6 163 6h41zM521 80c-6.54785 70.9307 -93 286 -213 403c6.63965 -2.70508 65.8047 -51 131 -51
c52.2041 0 81 30.8477 81 62c0 93 0.458984 71.2119 0.458984 247.727c0 5.5625 0.176758 11.3174 0.541016 17.2734c3 49 35 77 78 77h329v76h-353c-105 0 -131.004 -68.0605 -135 -126c-0.537109 -7.79492 -0.792969 -15.3818 -0.792969 -22.7646
c0 -146.235 1.79297 -152.229 1.79297 -222.235c0 -24 -27.2002 -25 -45 -25c-42.8486 0 -148.414 42.3252 -237 155l-62 -55c231 -222 328.154 -425.457 347 -549z" />
</svg>
