<?xml version="1.0" standalone="no"?>
<!DOCTYPE svg PUBLIC "-//W3C//DTD SVG 1.1//EN" "http://www.w3.org/Graphics/SVG/1.1/DTD/svg11.dtd" >
<svg xmlns="http://www.w3.org/2000/svg" xmlns:xlink="http://www.w3.org/1999/xlink" version="1.1" viewBox="-10 0 1010 1000">
  <g transform="matrix(1 0 0 -1 0 880)">
   <path fill="currentColor"
d="M611 405h-16c-64 0 -121 -5 -168 -22v-27c0 -63 7 -109 17 -166c65 61 124 106 167 215zM357 335v17c-96 -55 -169 -127 -169 -207c0 -40 19 -60 56 -60c38 0 86 17 136 52c-14 71 -23 124 -23 198zM632 469c0.212891 0.637695 10.9678 33.4854 13 66l80 -20
c-5.00293 -10.8398 -20.6016 -57.4072 -21 -59c124 -33 198 -117 198 -226c0 -142 -94 -239 -324 -275l-43 67c178 19 288 84 288 212c0 75 -49 135 -142 160c-55 -140 -135 -214 -219 -285c8 -28 16 -55 24 -80l-73 -22c-5 17 -11 35 -16 55c-54 -33 -113 -54 -166 -54
c-67 0 -118 40 -118 125c0 127 108 232 244 294c2 50 10 126 14 172c-21 -1 -41 -1 -60 -1c-43 0 -120 4 -160 6l-2 75c34 -5 121 -12 163 -12c22 0 44 0 66 1c11 106.333 11 106.333 11 123l84 -2c-8.99343 -23.3829 -16.198 -62.4356 -24 -119
c34.5814 1.65991 194.247 20.721 321.802 20.721c152.375 0 192.198 -55.427 192.198 -108.721c0 -77 -72.1064 -122.474 -145 -150l-40 65c70 11 113.975 43.6367 113.975 76.7959c0 22.2686 -13.1094 51.248 -111.662 51.248
c-126.066 0 -304.177 -22.2521 -340.312 -24.0439c-4 -38 -10 -107 -13 -149c55 17 119 18 169 18c12 0 24 0 36 -1z" />
  </g>

</svg>
