<?xml version="1.0" standalone="no"?>
<!DOCTYPE svg PUBLIC "-//W3C//DTD SVG 1.1//EN" "http://www.w3.org/Graphics/SVG/1.1/DTD/svg11.dtd" >
<svg xmlns="http://www.w3.org/2000/svg" xmlns:xlink="http://www.w3.org/1999/xlink" version="1.1" viewBox="-10 0 1010 1000">
   <path fill="currentColor"
d="M642 794c49 0 69 -26 110 -77c-20 -26 -59 -47 -103 -47c-59 0 -81 33 -81 64c0 34 43 60 74 60zM422 494c19 -55 33 -120 43 -182c-80 17 -131 58 -185 110c15 37 27 69 38 93c18 39 30 67 52 100c22 -39 35 -74 52 -121zM226 484l-8 13c-44 66 -67 133 -67 203
c0 50 26 84 57 84c42 0 82 -35 125 -92c-24 -33 -48 -74 -69 -116c-12 -25 -24 -58 -38 -92zM552 234h10c161 0 321 98 321 283c0 66 -27 146 -56 202c17 17 55.4209 57 55.4209 117.735c0 18.9551 -13.377 99 -123.711 131.484l-33 -52
c22.3633 -6.04395 88.9873 -31.5908 88.9873 -91.0332c0 -9.43555 -13.6973 -31.1865 -26.6973 -44.1865c-44 61 -90 83 -143 83c-72 0 -147 -49 -147 -123c0 -69 57 -134 149 -134c54 0 104 20 130 46c24 -47 30 -88 30 -134c0 -128 -104 -217 -250 -217h-14
c-11 72 -26 147 -50 216c-63 179 -158 347 -288 347c-70 0 -126 -58 -126 -153c0 -102 33 -190 81 -256c12 -16 23 -32 37 -48c-11 -31 -22 -60 -30 -85c-11 -36 -19 -64 -36 -103l75 -31c11 52 29 110 48 164c62 -52 124 -95 221 -112c2 -21 4 -41 5 -59
c0.899414 -15.2822 1.39355 -27.5352 1.39355 -39.0264c0 -14.0742 -0.742188 -27.0088 -2.39355 -42.9736l90 3c-5 24 -8 58 -11 79z" />
</svg>
