<?xml version="1.0" standalone="no"?>
<!DOCTYPE svg PUBLIC "-//W3C//DTD SVG 1.1//EN" "http://www.w3.org/Graphics/SVG/1.1/DTD/svg11.dtd" >
<svg xmlns="http://www.w3.org/2000/svg" xmlns:xlink="http://www.w3.org/1999/xlink" version="1.1" viewBox="-10 0 1010 1000">
   <path fill="currentColor"
d="M712 545c-86 -61 -167 -86 -277 -86c-158 0 -250 81 -250 197c0 206 210 284 510 251l22 -79c-228 32 -450 -8 -450 -170c0 -74 60 -130 176 -130c118 0 227 39 292 118c13 15 22 28 31 46l74 -27c-11.7227 -22.9766 -82.8359 -169.096 -129 -423c-5 -26 -8 -48 -10 -65
c-5 -32 -6 -55 -5 -82l-89 5c7 26 13 57 18 83c3 15 6 35 11 57c30.2842 153.584 54.0322 245.374 76 305z" />
</svg>
