<?xml version="1.0" standalone="no"?>
<!DOCTYPE svg PUBLIC "-//W3C//DTD SVG 1.1//EN" "http://www.w3.org/Graphics/SVG/1.1/DTD/svg11.dtd" >
<svg xmlns="http://www.w3.org/2000/svg" xmlns:xlink="http://www.w3.org/1999/xlink" version="1.1" viewBox="-10 0 1010 1000">
   <path fill="currentColor"
d="M269.272 205.421l9.72754 -81.4209c70.4238 17.4785 160.307 32.2461 258.607 43.9912c94.3291 11.2705 195.446 16.3018 266.775 17.7744l-9.72754 81.4209c-67.1201 -2.98438 -176.181 -8.96484 -266.538 -19.7607
c-98.3008 -11.7451 -181.233 -25.6826 -258.845 -42.0049zM242.867 462.215l9.72754 -81.4209c70.4238 17.4785 160.307 32.2461 258.607 43.9912c94.3291 11.2705 195.446 16.3018 266.775 17.7744l-9.72754 81.4209
c-67.1201 -2.98438 -176.181 -8.96484 -266.538 -19.7607c-98.3008 -11.7451 -181.233 -25.6826 -258.845 -42.0049zM156 754zM308 593l22 72c-50.207 16.2568 -71.9414 40.3857 -71.9414 64.7012c0 43.8457 77.4238 88.2988 233.941 88.2988c137 0 264 -15 339 -38l1 86
c-71 19 -197 34 -338 34c-229.418 0 -318.063 -82.3887 -318.063 -162.894c0 -61.9561 52.9111 -122.796 132.063 -144.106z" />
</svg>
