<?xml version="1.0" standalone="no"?>
<!DOCTYPE svg PUBLIC "-//W3C//DTD SVG 1.1//EN" "http://www.w3.org/Graphics/SVG/1.1/DTD/svg11.dtd" >
<svg xmlns="http://www.w3.org/2000/svg" xmlns:xlink="http://www.w3.org/1999/xlink" version="1.1" viewBox="-10 0 1010 1000">
  <g transform="matrix(1 0 0 -1 0 880)">
   <path fill="currentColor"
d="M309 704c1 0 77 2 77 2s209 14 303 30l-1 -74c-98 -15 -328 -28 -328 -28l-79 -2zM309 704c-23 -1 -44 -1 -65 -1c-45 0 -114 4 -167 10v-75c54 -4 121 -6 163 -6h41zM485 815c-6.54741 -70.9303 -140.439 -314.02 -242 -418c6.63979 2.70485 65.8047 51 131 51
c52.2043 0 81 -30.8477 81 -62c0 -93 0.458984 -71.2119 0.458984 -247.727c0 -5.5625 0.176758 -11.3174 0.541016 -17.2734c3 -49 36 -70 79 -70c110 0 115 2 328 2v-85h-353c-105 0 -139.004 68.0605 -143 126c-0.537109 7.79492 -0.792969 15.3818 -0.792969 22.7646
c0 146.235 1.79297 152.229 1.79297 222.235c0 24 -19.2002 25 -37 25c-42.8486 0 -148.414 -42.3251 -237 -155l-74 65c118 111 358.154 430.457 377 554z" />
  </g>

</svg>
