<?xml version="1.0" standalone="no"?>
<!DOCTYPE svg PUBLIC "-//W3C//DTD SVG 1.1//EN" "http://www.w3.org/Graphics/SVG/1.1/DTD/svg11.dtd" >
<svg xmlns="http://www.w3.org/2000/svg" xmlns:xlink="http://www.w3.org/1999/xlink" version="1.1" viewBox="-10 0 1010 1000">
  <g transform="matrix(1 0 0 -1 0 880)">
   <path fill="currentColor"
d="M276 781c109 -25 391 -45 488 -46l-12 -77c-110 7 -377 27 -489 47zM264 104.862c44 0 99 56.2451 150 203.623c25 72.3643 44 128.319 55 208.627c-190 -21.1797 -290 -136.027 -290 -253.399c0 -110.312 42 -158.851 85 -158.851zM525 -41.6328l-46 66.1875
c31 1.76562 61 6.17773 85 10.5898c127 24.7109 251 107.665 251 258.573c0 132.375 -95 211.922 -263 224.277c-13 -81.1904 -32 -142.44 -59 -224.513c-61 -179.147 -140 -278.81 -232 -278.81c-88 0 -161 99.0146 -161 242.862c0 189.737 176 335.647 418 335.647
c232 0 380 -124.73 380 -301.23c0 -183.56 -137 -306.228 -373 -333.585z" />
  </g>

</svg>
