<?xml version="1.0" standalone="no"?>
<!DOCTYPE svg PUBLIC "-//W3C//DTD SVG 1.1//EN" "http://www.w3.org/Graphics/SVG/1.1/DTD/svg11.dtd" >
<svg xmlns="http://www.w3.org/2000/svg" xmlns:xlink="http://www.w3.org/1999/xlink" version="1.1" viewBox="-10 0 1010 1000">
  <g transform="matrix(1 0 0 -1 0 880)">
   <path fill="currentColor"
d="M136 771l94 -9c-6 -18 -13 -45 -18 -64c-31 -144 -64 -359 -28 -521c14 42 34 101 52 150l44 -27c-24 -69 -54 -169 -64 -218c-3 -15 -5 -33 -5 -44l3 -34l-68 -8c-20 60 -52 189 -52 314c0 160 25 313 37 395c4 23 5 49 5 66zM409 778c109 -25 324 -45 421 -46l-12 -77
c-110 7 -310 27 -422 47zM443 120.189c44 0 84 89.8105 108 170.861c21.7376 73.4102 31 135.576 42 215.884c-190 -21.1797 -217 -163.515 -217 -280.887c0 -80.0479 24 -105.858 67 -105.858zM619 -41.6328l-46 66.1875c31 1.76562 62.0516 2.29279 85 10.5898
c113 40.8555 191 106.713 191 257.621c0 56.2344 -5 202.696 -173 215.052c-13 -81.1904 -21.014 -149.062 -46 -231.77c-34.0752 -112.794 -98 -246.048 -190 -246.048c-88 0 -143 87 -143 189.87c0 189.737 76 369.13 318 369.13c232 0 317 -121.5 317 -298
c0 -183.56 -82 -284 -313 -332.633z" />
  </g>

</svg>
