<?xml version="1.0" standalone="no"?>
<!DOCTYPE svg PUBLIC "-//W3C//DTD SVG 1.1//EN" "http://www.w3.org/Graphics/SVG/1.1/DTD/svg11.dtd" >
<svg xmlns="http://www.w3.org/2000/svg" xmlns:xlink="http://www.w3.org/1999/xlink" version="1.1" viewBox="-10 0 1010 1000">
   <path fill="currentColor"
d="M611 476h-16c-64 0 -121 4 -168 21v27c0 63 7 109 17 166c65 -61 124 -105 167 -214zM357 545v-17c-96 55 -169 127 -169 207c0 40 19 60 56 60c38 0 86 -17 136 -52c-14 -71 -23 -124 -23 -198zM704 425c124 33 198 116 198 225c0 142 -94 239 -324 275l-43 -67
c178 -19 288 -84 288 -212c0 -75 -49 -134 -142 -159c-55 140 -135 213 -219 284c8 28 16 55 24 80l-73 22c-5 -17 -11 -35 -16 -55c-54 33 -113 54 -166 54c-67 0 -118 -40 -118 -125c0 -127 108 -232 244 -294c2 -50 10 -126 14 -172c-21 1 -41 1 -60 1
c-43 0 -120 -4 -160 -6l-2 -75c34 5 121 12 163 12c22 0 44 0 66 -1c11 -106.333 11 -106.333 11 -123l84 2c-8.99316 23.3828 -16.1982 62.4355 -24 119c34.5811 -1.66016 96.2471 -20.7207 223.803 -20.7207c152.374 0 192.197 47.4268 192.197 100.721
c0 86 -113 112 -203 113l-29 -63c69 0 159.975 -12 159.975 -43.7959c0 -22.2686 -12.1094 -41.248 -110.662 -41.248c-126.066 0 -206.177 22.252 -242.312 24.0439c-4 38 -10 107 -13 149c55 -17 119 -17 169 -17c41.5 0 41.5 0 108 14z" />
</svg>
