<?xml version="1.0" standalone="no"?>
<!DOCTYPE svg PUBLIC "-//W3C//DTD SVG 1.1//EN" "http://www.w3.org/Graphics/SVG/1.1/DTD/svg11.dtd" >
<svg xmlns="http://www.w3.org/2000/svg" xmlns:xlink="http://www.w3.org/1999/xlink" version="1.1" viewBox="-10 0 1010 1000">
   <path fill="currentColor"
d="M229 563c44 -104 85 -233 99 -352l88 18c-7 23 -13 52 -18 73c-13 62 -48 191 -90 294c-37 92 -92 194 -148 275l-85 -36c64 -84 120 -189 154 -272zM722 525c-32.4268 -83.499 -79.7686 -226.086 -123.082 -226.086c-10.1152 0 -39.502 31.7402 -50.1484 47.3076
l-63.2285 -60.5195c38.0469 -53.2324 83.9033 -83.4219 113.986 -83.4219c95.209 0 171.624 215.241 204.473 295.72c40 98 93 252 120 342l-89 29c-25 -102 -71.8564 -238.056 -113 -344z" />
</svg>
